<?xml version="1.0" standalone="no"?>
<!DOCTYPE svg PUBLIC "-//W3C//DTD SVG 1.1//EN" "http://www.w3.org/Graphics/SVG/1.1/DTD/svg11.dtd" >
<svg xmlns="http://www.w3.org/2000/svg">
<metadata>
This is a custom SVG webfont generated by Font Squirrel.
Copyright   : c Copyright 2001 by Tom Truong All Rights Reserved
</metadata>
<defs>
<font id="UVNGiayTrangBold" horiz-adv-x="1024" >
<font-face units-per-em="2048" ascent="1638" descent="-410" />
<missing-glyph horiz-adv-x="438" />
<glyph unicode=" "  horiz-adv-x="438" />
<glyph unicode="&#x09;" horiz-adv-x="438" />
<glyph unicode="&#xa0;" horiz-adv-x="438" />
<glyph unicode="!" horiz-adv-x="440" d="M137 0v442h167v-442h-167zM137 542v1021h167v-1021h-167z" />
<glyph unicode="&#x22;" horiz-adv-x="589" d="M96 880v485h144v-485h-144zM350 880v485h144v-485h-144z" />
<glyph unicode="#" horiz-adv-x="1143" d="M87 425v157h218l50 255h-175v160h206l71 368h155l-72 -368h271l71 368h154l-71 -368h172v-160h-203l-49 -250h173v-162h-204l-83 -425h-154l82 425h-270l-83 -425h-154l83 425h-188zM459 582h271l50 255h-271z" />
<glyph unicode="$" horiz-adv-x="956" d="M-37 0l84 157q79 -10 145 -10q124 0 218 29v559q-150 35 -216 78q-104 67 -104 191q0 130 99 229q85 85 221 127v127h154v-96q60 6 103 6q72 0 177 -17l-76 -141q-75 7 -117 7q-36 0 -87 -7v-362q334 -77 334 -345q0 -154 -96 -286q-92 -126 -238 -191v-187h-154v132 q-110 -22 -214 -22q-103 0 -233 22zM267 1046q0 -91 143 -128v284q-143 -66 -143 -156zM564 250q159 114 159 258q0 129 -159 184v-442z" />
<glyph unicode="%" horiz-adv-x="1504" d="M55 951q0 109 73 189.5t180 80.5q66 0 153 -38l-89 -140q-37 12 -56 12q-39 0 -67 -29.5t-28 -68.5q0 -62 50 -102q46 -38 109 -38q85 0 142 58t57 143q0 128 -107 214q-69 55 -221 113l55 80q166 -60 403 -60q275 0 526 103l-385 -829q131 67 248 67q151 0 251.5 -105.5 t100.5 -257.5q0 -159 -108 -268t-268 -109q-115 0 -195 67q-84 71 -84 185q0 163 166 251l82 -134q-70 -50 -70 -106q0 -99 110 -99q79 0 137 65q55 63 55 143q0 87 -59.5 143.5t-146.5 56.5q-177 0 -351 -202q-134 -157 -220 -367l-158 -27l617 1305q-139 -27 -290 -27 q73 -104 73 -215q0 -153 -100.5 -257t-252.5 -104q-137 0 -232 84q-100 88 -100 223z" />
<glyph unicode="&#x26;" horiz-adv-x="1192" d="M48 372q0 151 115 269q70 73 244 178q-105 158 -105 273q0 129 95 215q91 82 222 82q120 0 202 -66q89 -71 89 -188q0 -206 -270 -369l279 -405q45 44 111 152l121 -123q-50 -81 -135 -167l103 -151l-140 -90l-90 129q-179 -138 -388 -138q-191 0 -317 102 q-136 110 -136 297zM220 374q0 -107 90 -174q81 -61 192 -61q145 0 292 111l-299 439q-129 -73 -183 -124q-92 -87 -92 -191zM466 1086q0 -37 18 -71.5t37 -67.5l29 -53q191 116 191 221q0 54 -36 86t-91 32q-61 0 -104.5 -43t-43.5 -104z" />
<glyph unicode="'" horiz-adv-x="335" d="M96 880v485h144v-485h-144z" />
<glyph unicode="(" horiz-adv-x="689" d="M82 606q0 542 404 957h217q-225 -225 -333 -434q-125 -245 -125 -529q0 -285 123 -515q96 -180 328 -420h-220q-394 413 -394 941z" />
<glyph unicode=")" horiz-adv-x="689" d="M-14 1563h216q405 -413 405 -957q0 -528 -395 -941h-219q230 239 327 420q124 232 124 516q0 283 -126 528q-107 208 -332 434z" />
<glyph unicode="*" horiz-adv-x="525" d="M41 1210l50 84l124 -70v141h97v-142l124 69l48 -82l-116 -73l116 -71l-48 -82l-124 71v-142h-97v140l-124 -69l-49 82l125 71z" />
<glyph unicode="+" horiz-adv-x="1081" d="M110 612v142h359v346h142v-346h359v-142h-359v-347h-142v347h-359z" />
<glyph unicode="," horiz-adv-x="364" d="M12 -104l115 461h167l-111 -461h-171z" />
<glyph unicode="-" horiz-adv-x="513" d="M0 470l44 151h469l-45 -151h-468z" />
<glyph unicode="." horiz-adv-x="364" d="M99 0v360h166v-360h-166z" />
<glyph unicode="/" horiz-adv-x="800" d="M0 -292l676 1812l124 -45l-675 -1813z" />
<glyph unicode="0" horiz-adv-x="1081" d="M45 502q0 243 114 409q130 189 362 189q18 0 55 -3l-18 -149q-20 1 -28 1q-156 0 -243 -149q-72 -124 -72 -292q0 -142 62 -242q73 -118 206 -118q191 0 295 208q84 167 84 379q0 200 -103 323q-111 131 -308 131q-21 0 -59 -2l19 161h39q146 0 273 -63 q314 -156 314 -574q0 -271 -141 -484q-161 -243 -419 -243q-144 0 -252 86q-180 143 -180 432z" />
<glyph unicode="1" horiz-adv-x="1081" d="M293 1025l401 386v-1411h-167v1025l-117 -120z" />
<glyph unicode="2" horiz-adv-x="1081" d="M97 0q126 196 254 382q211 306 298 477q58 115 58 198q0 74 -43.5 122.5t-116.5 48.5q-134 0 -255 -189l-134 100q155 258 393 258q142 0 236.5 -90t94.5 -231q0 -133 -112 -342q-55 -102 -196 -315l-171 -258h567l-61 -161h-812z" />
<glyph unicode="3" horiz-adv-x="1081" d="M96 0l69 158q50 -10 102 -10q302 0 431 189q55 81 55 170q0 120 -97 185q-84 55 -210 55q-30 0 -83 -6l-33 110q112 33 195 92q109 79 109 173q0 38 -27 64t-65 26q-80 0 -167 -87l-93 141q144 113 277 113q103 0 174 -64q75 -67 75 -168q0 -146 -149 -280 q121 -32 193.5 -121.5t72.5 -213.5q0 -188 -137 -339q-184 -203 -499 -203q-82 0 -193 16z" />
<glyph unicode="4" horiz-adv-x="1081" d="M-9 520l707 801l144 62v-788h252l-53 -148h-199v-447h-164v447h-647zM259 595h419v491z" />
<glyph unicode="5" horiz-adv-x="1081" d="M23 16l93 153q71 -15 146 -15q231 0 373 122q146 125 146 294q0 101 -65.5 170.5t-165.5 69.5q-125 0 -273 -99l-82 81l206 560h609l-64 -155h-426l-90 -252q77 29 151 29q169 0 272 -119q97 -112 97 -284q0 -134 -63 -252q-87 -164 -262 -251q-160 -79 -358 -79 q-115 0 -244 27z" />
<glyph unicode="6" horiz-adv-x="1081" d="M96 465q0 352 240 617q218 239 573 352v-174q-183 -69 -305 -157q-155 -112 -246 -274q-97 -170 -97 -353q0 -139 53 -230q65 -112 194 -112q143 0 232 126q80 112 80 261q0 101 -43 170q-51 81 -146 81q-52 0 -136 -39l-3 163q101 37 175 37q160 0 246 -132 q73 -113 73 -281q0 -165 -68 -296q-74 -144 -214 -212q-94 -46 -196 -46q-202 0 -313 153q-99 137 -99 346z" />
<glyph unicode="7" horiz-adv-x="1081" d="M169 -201l561 1395h-561l57 158h748l-380 -952h186l-60 -158h-189l-181 -443h-181z" />
<glyph unicode="8" horiz-adv-x="1081" d="M90 342q0 165 101 287q71 88 240 196q-149 100 -149 239q0 146 122 238q112 83 263 83q129 0 217 -60q100 -69 100 -192q0 -103 -76 -186q-52 -56 -166 -125q240 -153 240 -358q0 -203 -153 -349t-356 -146q-166 0 -274.5 104t-108.5 269zM256 345q0 -92 66 -151t159 -59 q129 0 228.5 94.5t99.5 223.5q0 90 -61 156q-113 122 -152 122q-5 0 -8 -2q-332 -177 -332 -384zM446 1067q0 -54 52 -102q67 -61 79 -61h2q127 60 191 118q48 44 48 96q0 110 -153 110q-79 0 -144 -40q-75 -46 -75 -121z" />
<glyph unicode="9" horiz-adv-x="1081" d="M102 863q0 220 122 376q133 169 347 169q206 0 320 -160q101 -141 101 -355q0 -222 -105 -424q-102 -197 -282 -334q-150 -114 -390 -207l-9 174q206 91 318 182q140 114 219 273q81 163 81 340q0 134 -59 230q-70 115 -195 115q-137 0 -223 -123q-77 -109 -77 -252 q0 -106 43 -178q53 -88 151 -88q56 0 138 42l11 -161q-97 -43 -179 -43q-163 0 -254 136q-78 117 -78 288z" />
<glyph unicode=":" horiz-adv-x="364" d="M99 0v360h166v-360h-166zM99 705v360h166v-360h-166z" />
<glyph unicode=";" horiz-adv-x="364" d="M12 -104l115 461h167l-111 -461h-171zM100 705v360h166v-360h-166z" />
<glyph unicode="&#x3c;" d="M68 611v144l887 421v-166l-710 -327l710 -327v-166z" />
<glyph unicode="=" horiz-adv-x="1081" d="M110 461v142h860v-142h-860zM110 762v142h860v-142h-860z" />
<glyph unicode="&#x3e;" d="M69 190v166l709 327l-709 327v166l887 -421v-144z" />
<glyph unicode="?" horiz-adv-x="574" d="M97 0v441h165v-441h-165zM97 540v9q-1 155 58 246q64 83 129 165q80 106 80 183q0 136 -252 348l113 119q141 -119 208 -206q102 -133 102 -265q0 -113 -98 -244q-133 -178 -148 -211q-25 -55 -27 -144h-165z" />
<glyph unicode="@" horiz-adv-x="1485" d="M75 676q0 297 205.5 503.5t501.5 206.5q255 0 438 -159q190 -165 190 -417q0 -239 -164 -400q-107 -105 -215 -105q-63 0 -103 32q-43 34 -43 95q0 4 11 142q-79 -131 -134 -185q-90 -88 -202 -88q-97 0 -155.5 62t-58.5 160q0 204 196.5 373t465.5 169q65 0 132 -14 l-55 -103q-63 7 -98 7q-198 0 -353 -132q-160 -136 -160 -291q0 -45 27 -77q29 -35 73 -35q56 0 114 55q53 49 269 384l90 52l-37 -422q-3 -34 -3 -51q0 -47 40 -47q65 0 145 91q119 136 119 321q0 216 -158 355q-151 133 -370 133q-259 0 -433 -178.5t-174 -437.5 q0 -253 170 -426.5t422 -173.5q246 0 453 203l75 -63q-71 -72 -118 -107q-176 -129 -410 -129q-291 0 -492 203t-201 494z" />
<glyph unicode="A" horiz-adv-x="1295" d="M-41 -75l598 1452l106 44l316 -736q31 2 58 2q116 0 200 -20l-66 -151q-52 7 -126 8l209 -484l-150 -68l-226 541q-244 -60 -415 -180q-165 -117 -315 -327zM330 395q192 194 490 267l-195 466z" />
<glyph unicode="B" horiz-adv-x="1147" d="M123 0v1365h167v-182q143 208 336 208q123 0 203 -77.5t80 -199.5q0 -154 -138 -279q143 -18 222 -112t79 -240q0 -223 -162 -364q-155 -134 -381 -134q-95 0 -200 32l79 154q86 -20 145 -20q137 0 240 91q107 94 107 229q0 101 -73 163q-69 57 -172 57q-52 0 -123 -26 l-61 135q268 129 268 297q0 57 -40.5 93t-98.5 36q-62 0 -126 -45q-129 -91 -166 -306q-18 -104 -18 -363v-512h-167z" />
<glyph unicode="C" horiz-adv-x="1131" d="M47 530q0 248 124 472q95 172 234 278q160 122 336 122q204 0 350 -176l-127 -118q-91 134 -232 134q-80 0 -166 -48q-154 -86 -253 -286q-94 -187 -94 -374q0 -169 85 -276q92 -117 257 -117q216 0 422 231l95 -120q-251 -278 -535 -278q-233 0 -369 165 q-127 154 -127 391z" />
<glyph unicode="D" horiz-adv-x="1247" d="M123 0v1365h167v-209q93 124 178 179q104 67 242 67q226 0 363 -169q127 -158 127 -388q0 -322 -187 -574q-205 -276 -517 -276q-44 0 -140 14l65 158q54 -6 87 -6q230 0 382 227q135 201 135 443q0 161 -77 274q-89 129 -243 129q-203 0 -322 -215q-93 -168 -93 -495 v-524h-167z" />
<glyph unicode="E" horiz-adv-x="904" d="M18 634l46 158h86v573h689l-45 -158h-477v-415h493l-43 -158h-450v-476h574l-44 -158h-697v634h-132z" />
<glyph unicode="F" horiz-adv-x="869" d="M18 633l46 158h87v574h692l-44 -158h-481v-416h495l-45 -158h-450v-633h-167v633h-133z" />
<glyph unicode="G" horiz-adv-x="1203" d="M47 481q0 271 132 509q141 256 377 359q110 48 215 48q175 0 336 -136l-118 -114q-104 100 -219 100q-84 0 -176 -51q-166 -92 -272 -295q-101 -193 -101 -392q0 -139 52 -238q66 -125 193 -125q133 0 252 145q52 64 162 261l106 189l106 44v-785h-160v352 q-122 -195 -188 -258q-121 -117 -290 -117q-197 0 -309 158q-98 140 -98 346z" />
<glyph unicode="H" horiz-adv-x="1237" d="M18 635l53 158h122v572h167v-572h537v572h167v-572h155l-52 -158h-103v-635h-167v635h-537v-635h-167v635h-175z" />
<glyph unicode="I" horiz-adv-x="412" d="M123 0v1365h167v-1365h-167z" />
<glyph unicode="J" horiz-adv-x="723" d="M0 1207l42 158h572v-628q0 -166 -17 -254q-37 -191 -187 -335q-134 -130 -333 -199l-63 155q313 114 394 340q39 108 39 304v459h-447z" />
<glyph unicode="K" horiz-adv-x="1077" d="M123 -62v1427h167v-867q242 590 647 905l101 -142q-267 -195 -450 -516l476 -683l-127 -106l-318 453q-82 117 -119 179q-66 -100 -144 -289q-69 -168 -108 -309z" />
<glyph unicode="L" horiz-adv-x="821" d="M123 0v1365h167v-1207h518l-54 -158h-631z" />
<glyph unicode="M" horiz-adv-x="1590" d="M27 6l247 1330l119 50l402 -1064l360 1014l126 50l282 -1380l-168 -23l-199 978l-336 -938l-115 -47l-367 985l-186 -978z" />
<glyph unicode="N" horiz-adv-x="1247" d="M123 0v1337l139 56l590 -899q49 -74 105 -179v1050h167v-1366l-117 -54l-654 1007q-39 60 -67 120q9 -208 9 -437q0 -209 -9 -635h-163z" />
<glyph unicode="O" horiz-adv-x="1184" d="M48 1207l49 158h715l-24 -80q-87 -16 -152 -48q-195 -96 -320 -350q-90 -182 -90 -384q0 -152 58 -253q71 -124 212 -124q134 0 253 123q100 104 160 273q57 160 57 313q0 245 -215 245q-11 0 -22 -1l45 151h23q175 0 263 -120q76 -106 76 -288q0 -299 -178 -563 q-199 -295 -484 -295q-209 0 -320 165q-96 142 -96 362q0 426 298 716h-308z" />
<glyph unicode="P" horiz-adv-x="997" d="M123 0v1365h167v-194q116 221 329 221q149 0 242 -105q89 -101 89 -253q0 -203 -145 -340q-148 -140 -424 -140q-12 0 -42 1l65 166q88 2 145 17q101 27 167 108t66 185q0 81 -47 135q-50 57 -130 57q-180 0 -261 -239q-54 -162 -54 -387v-597h-167z" />
<glyph unicode="Q" horiz-adv-x="1194" d="M48 532q0 233 99 444q106 227 292 342q128 79 276 79q205 0 315 -164q96 -142 96 -357q0 -263 -134 -497q-135 -239 -363 -364q274 -159 428 -159q84 0 185 28l-49 -167q-74 -17 -156 -17q-115 0 -213 32q-60 20 -251 130q-153 88 -261 93l28 96q203 50 329 162 q132 117 211 300q78 179 78 359q0 143 -61 246q-73 122 -207 122q-147 0 -268 -134q-98 -109 -155 -270q-52 -148 -52 -296q0 -131 53 -191q56 -64 183 -64l-49 -150q-130 6 -198 48q-156 96 -156 349z" />
<glyph unicode="R" horiz-adv-x="1007" d="M123 0v1365h167v-172q135 191 322 191q130 0 214 -93q81 -90 81 -222q0 -265 -296 -418l383 -594l-142 -89l-497 768q253 23 348 195q36 65 36 133q0 66 -43 116t-108 50q-101 0 -188 -96q-110 -125 -110 -452v-682h-167z" />
<glyph unicode="S" horiz-adv-x="957" d="M-14 -11l44 162q91 -18 166 -18q150 0 277 57q143 64 211 183q40 70 40 138q0 126 -166 180q-154 43 -308 85q-166 67 -166 222q0 214 233 326q138 66 339 66q86 0 175 -15l-39 -142q-84 8 -141 8q-240 0 -345 -115q-45 -49 -45 -103q0 -53 40 -82q28 -20 189 -61 q59 -13 174 -45q225 -78 225 -309q0 -262 -230 -415q-200 -134 -476 -134q-60 0 -197 12z" />
<glyph unicode="T" horiz-adv-x="964" d="M0 1207l41 158h910l-42 -158h-327v-1207h-167v1207h-415z" />
<glyph unicode="U" horiz-adv-x="1176" d="M123 252v1113h167v-1005q0 -99 1 -109q10 -76 55 -76q44 0 87 75q13 23 52 115l401 945l167 66v-1376h-167v900l-255 -601q-59 -138 -110 -205q-85 -108 -193 -108q-60 0 -107 30q-98 61 -98 236z" />
<glyph unicode="V" horiz-adv-x="1111" d="M-14 1317l161 64l403 -1145l189 401q147 312 147 502q0 94 -24 178l151 64q40 -140 40 -229q0 -242 -183 -616l-242 -495l-161 -68z" />
<glyph unicode="W" horiz-adv-x="1559" d="M14 1366l167 22l190 -982l343 941l117 45l360 -986l191 974l164 -24l-254 -1329l-118 -49l-396 1067l-369 -1010l-125 -49z" />
<glyph unicode="X" horiz-adv-x="1071" d="M14 40l428 677l-373 605l153 64l319 -511l322 509l152 -71l-374 -596l417 -677l-155 -67l-363 589l-373 -589z" />
<glyph unicode="Y" horiz-adv-x="1028" d="M0 1331l160 64l361 -701l352 699l155 -70l-674 -1342l-156 70l233 463z" />
<glyph unicode="Z" horiz-adv-x="1033" d="M-14 0l699 1207h-591l56 158h818l-696 -1207h747l-51 -158h-982z" />
<glyph unicode="[" horiz-adv-x="689" d="M123 -335v1898h480v-137h-318v-1625h318v-136h-480z" />
<glyph unicode="\" horiz-adv-x="800" d="M0 1475l125 45l675 -1812l-124 -46z" />
<glyph unicode="]" horiz-adv-x="689" d="M86 -199h318v1625h-318v137h480v-1898h-480v136z" />
<glyph unicode="^" d="M63 764l355 605h189l354 -605h-157l-293 491l-292 -491h-156z" />
<glyph unicode="_" d="M0 -175h1024v-142h-1024v142z" />
<glyph unicode="`" d="M384 1472h185l152 -268h-140z" />
<glyph unicode="a" horiz-adv-x="1113" d="M40 343q0 269 232 490q258 246 642 246q87 0 173 -18l-58 -133q-92 9 -134 9q-286 0 -495 -197q-197 -185 -197 -408q0 -79 44 -137q48 -65 125 -65q63 0 119 42q86 63 231 355l150 302l104 66v-895h-154v408q-106 -213 -170 -289q-121 -144 -286 -144q-153 0 -243 110 q-83 102 -83 258z" />
<glyph unicode="b" horiz-adv-x="1115" d="M24 -2l57 137q70 -13 127 -13q306 0 515 202q190 183 190 402q0 86 -47 145q-51 63 -135 63q-68 0 -130 -56q-150 -136 -345 -641l-119 -76v1398h154v-900q96 209 163 289q117 140 286 140q154 0 246 -102q89 -99 89 -255q0 -203 -130 -387q-125 -177 -318 -272 q-189 -93 -410 -93q-89 0 -193 19z" />
<glyph unicode="c" horiz-adv-x="883" d="M41 381q0 249 176 465q185 228 429 228q103 0 170.5 -62t67.5 -164q0 -91 -53 -173l-153 48q41 62 41 107q0 94 -106 94q-89 0 -191 -86q-97 -82 -156 -197q-63 -122 -63 -243q0 -112 63.5 -178t174.5 -66q121 0 281 82l51 -149q-165 -97 -335 -97q-177 0 -287 107 t-110 284z" />
<glyph unicode="d" horiz-adv-x="1088" d="M41 327q0 234 155 434q150 194 376 271q81 27 209 52l-68 -159q-204 -50 -352 -210q-158 -170 -158 -372q0 -79 44 -137q48 -63 124 -63q135 0 255 171q94 133 147 315q52 176 52 345v585h154v-1559h-154v381q-60 -161 -176 -272q-134 -128 -289 -128q-145 0 -234 102 q-85 97 -85 244z" />
<glyph unicode="e" horiz-adv-x="901" d="M40 391q0 231 152 430q193 253 446 253q104 0 171 -60q69 -63 69 -166q0 -162 -149 -298q-133 -122 -303 -158q-66 -14 -155 -19q-2 31 -2 50q0 37 16 101q115 8 219 60q111 56 174 145q38 54 38 98q0 97 -106 97q-87 0 -189 -86q-213 -180 -213 -439q0 -116 66.5 -180.5 t183.5 -64.5q92 0 267 82l48 -146q-168 -98 -338 -98q-177 0 -286 111t-109 288z" />
<glyph unicode="f" horiz-adv-x="590" d="M12 916l43 149h82q14 227 143 371q134 149 358 165v-156q-152 -11 -248 -120q-92 -105 -99 -260h347l-46 -149h-301v-916h-154v916h-125z" />
<glyph unicode="g" horiz-adv-x="1111" d="M41 329q0 218 148 411q127 165 321 255q187 86 401 86q84 0 176 -19l-56 -133q-74 12 -134 12q-249 0 -446 -156q-248 -196 -248 -451q0 -82 44 -140q49 -64 128 -64q123 0 224 161q29 47 105 196q64 128 166 338l105 66v-671q0 -159 -18 -255q-42 -222 -201 -350.5 t-386 -128.5q-67 0 -162 10l62 145q36 -3 62 -3q303 0 416 206q73 133 73 302v262q-99 -208 -168 -290q-121 -144 -287 -144q-148 0 -238 105q-87 100 -87 250z" />
<glyph unicode="h" horiz-adv-x="1005" d="M109 -54v775q0 273 80 431q150 297 551 475l66 -133q-420 -208 -508 -472q-35 -102 -35 -279v-298q80 201 137 316q105 212 190 274q60 44 130 44q175 0 175 -211v-7q-1 -86 -1 -861h-154v794q0 124 -42 124q-46 0 -149 -195q-43 -81 -125 -264q-75 -167 -177 -407z" />
<glyph unicode="i" horiz-adv-x="373" d="M109 0v1065h154v-1065h-154zM109 1196v363h154v-363h-154z" />
<glyph unicode="j" horiz-adv-x="444" d="M-49 104q163 72 209 169q34 72 34 269v523h154v-548q0 -123 -8 -183q-32 -242 -323 -368zM194 1199v360h154v-360h-154z" />
<glyph unicode="k" horiz-adv-x="957" d="M123 -33v698q0 694 689 928l51 -144q-351 -131 -476 -329q-118 -186 -118 -570q0 -20 1 -125q52 293 115 432q114 252 319 252q102 0 169.5 -67t67.5 -169q0 -252 -412 -401l439 -392l-104 -121l-405 376q-18 17 -74 74l-117 -374zM431 567q370 152 370 301q0 98 -97 98 q-114 0 -184 -164q-18 -41 -89 -235z" />
<glyph unicode="l" horiz-adv-x="373" d="M109 0v1559h154v-1559h-154z" />
<glyph unicode="m" horiz-adv-x="1450" d="M109 -43v1108h154v-589q28 109 90 269q70 182 120 252q70 99 176 99q158 0 157 -240l-2 -380q136 475 257 574q54 43 122 43q44 0 81 -20q58 -33 72 -108q5 -27 5 -135v-830h-154v807q0 113 -27 113q-33 0 -92 -148l-285 -718l-136 -97v837q0 129 -28 129q-31 0 -77 -115 l-302 -754z" />
<glyph unicode="n" horiz-adv-x="1005" d="M109 -50v1115h154v-648q47 159 127 328q100 213 189 287q65 54 141 54q51 0 93 -27q62 -41 77 -145q5 -36 5 -173v-741h-154v724q0 159 -17 183q-12 16 -29 16q-38 0 -86 -82q-44 -75 -148 -305q-90 -198 -204 -481z" />
<glyph unicode="o" horiz-adv-x="1001" d="M41 384q0 291 245 539h-184l58 142h583l-26 -67q-213 -37 -363.5 -214t-150.5 -393q0 -110 54 -185q61 -83 168 -83q155 0 270 166q103 150 103 313q0 79 -47 129.5t-126 50.5q-19 0 -48 -2l62 143q84 0 127 -11q194 -49 194 -287q0 -239 -147 -437q-160 -217 -391 -217 q-179 0 -282 119q-99 112 -99 294z" />
<glyph unicode="p" horiz-adv-x="1085" d="M109 -498v1563h154v-347q68 151 180 249q130 113 279 113q154 0 241 -106q81 -99 81 -256q0 -237 -158 -433q-229 -285 -532 -285q-16 0 -38 1l65 155q205 14 355 189q146 170 146 378q0 87 -45 142q-49 59 -134 59q-88 0 -183 -86q-257 -233 -257 -800v-536h-154z" />
<glyph unicode="q" horiz-adv-x="1109" d="M41 331q0 169 100 335q122 204 326 311q196 104 440 104q90 0 180 -18l-59 -135q-67 12 -138 12q-268 0 -475 -183q-212 -187 -212 -399q0 -137 80 -191q47 -32 95 -32q84 0 155 77q67 71 175 289l164 330l100 63v-1392h-154v901q-99 -199 -169 -280q-121 -141 -280 -141 q-144 0 -237 103q-91 100 -91 246z" />
<glyph unicode="r" horiz-adv-x="755" d="M109 -52v1117h154v-498q37 196 94 332q80 191 209 191q190 0 190 -264q0 -29 -3 -72l-160 -51q6 86 6 152q0 71 -36 71q-41 0 -99 -136q-27 -62 -79 -219q-47 -138 -112 -344l-66 -210z" />
<glyph unicode="s" horiz-adv-x="797" d="M-20 1l45 154q91 -20 168 -20q193 0 296 87q86 73 86 165q0 97 -123 138q-114 32 -229 65q-123 51 -123 172q0 86 49 159q107 158 394 158q64 0 153 -16l-42 -139q-57 11 -116 11q-263 0 -263 -127q0 -38 30 -60q25 -18 121 -42q151 -37 218 -85q100 -72 100 -202 q0 -132 -97 -247q-159 -188 -466 -188q-87 0 -201 17z" />
<glyph unicode="t" horiz-adv-x="629" d="M0 916l31 149h195v329h154v-329h297l-32 -149h-265v-916h-154v916h-226z" />
<glyph unicode="u" horiz-adv-x="1002" d="M109 183v882h154v-784q0 -142 43 -142q31 0 81 81q39 63 124 239t239 550l143 102v-1111h-154v645q-43 -152 -130 -332q-105 -215 -193 -288q-61 -50 -139 -50q-168 0 -168 208z" />
<glyph unicode="v" horiz-adv-x="935" d="M-7 1020l151 58l341 -828q151 316 161 339q94 225 94 366q0 41 -5 110h163q4 -67 4 -118q0 -218 -195 -606l-166 -330l-102 -56z" />
<glyph unicode="w" horiz-adv-x="1356" d="M7 1018l147 55l188 -773l328 819l341 -819l94 347q55 203 55 308q0 37 -7 110h161q8 -72 8 -106q0 -111 -55 -319l-161 -609l-127 -68l-309 749l-279 -695l-123 -65z" />
<glyph unicode="x" horiz-adv-x="894" d="M-11 39l354 497l-333 474l128 83l301 -431l301 431l133 -83l-336 -476l354 -504l-129 -81l-324 462l-323 -462z" />
<glyph unicode="y" horiz-adv-x="1009" d="M72 -487l69 152q86 -14 159 -14q138 0 242 58q116 64 162 185q35 95 35 272v450q-95 -222 -118 -272q-81 -170 -151 -254q-93 -110 -193 -110q-168 0 -168 222v863h154v-813q0 -110 44 -110q26 0 61 48q77 105 229 457l157 363l145 101v-995q0 -306 -166 -462 q-173 -163 -444 -163q-82 0 -217 22z" />
<glyph unicode="z" horiz-adv-x="886" d="M-25 0l609 916h-498v149h781l-608 -916h623l-49 -149h-858z" />
<glyph unicode="{" horiz-adv-x="689" d="M58 554v121q98 5 127 57q20 37 20 146v375q0 120 26 183q38 90 138 113q56 13 209 14v-129q-75 -1 -87 -2q-53 -4 -81 -23q-51 -34 -51 -191v-370q0 -97 -19 -141q-26 -58 -104 -93q78 -34 104 -92q19 -44 19 -141v-371q0 -155 51 -190q34 -24 168 -25v-130h-41 q-191 0 -258 58q-74 64 -74 253v375q0 109 -20 146q-29 52 -127 57z" />
<glyph unicode="|" d="M429 -341v1706h166v-1706h-166z" />
<glyph unicode="}" horiz-adv-x="689" d="M111 -205q79 1 87 1q53 5 81 24q51 35 51 190v371q0 97 19 140q26 58 104 93q-78 35 -104 93q-19 44 -19 141v370q0 157 -51 191q-35 24 -168 25v129h62q179 0 245 -65.5t66 -244.5v-375q0 -109 20 -146q29 -52 127 -57v-121q-98 -5 -127 -57q-20 -37 -20 -146v-375 q0 -204 -88 -264q-68 -47 -285 -47v130z" />
<glyph unicode="~" horiz-adv-x="1365" d="M193 1256q112 231 277 231q75 0 223.5 -73.5t206.5 -73.5q99 0 186 152l88 -70q-114 -233 -277 -233q-71 0 -219.5 74t-212.5 74q-96 0 -183 -151z" />
<glyph unicode="&#xa1;" horiz-adv-x="440" d="M137 0v1021h167v-1021h-167zM137 1121v442h167v-442h-167z" />
<glyph unicode="&#xa2;" horiz-adv-x="930" d="M48 478q0 368 348 610v249h148v-184q48 14 91 14q114 0 182 -60q72 -63 72 -176q0 -69 -50 -165l-154 49q40 71 40 116q0 88 -107 88q-28 0 -74 -17v-744q86 20 188 71l49 -148q-120 -67 -237 -89v-173h-148v169q-156 9 -254 122q-94 110 -94 268zM214 487q0 -90 46 -153 q50 -68 136 -80v648q-79 -57 -132 -188q-50 -121 -50 -227z" />
<glyph unicode="&#xa3;" horiz-adv-x="949" d="M55 630l73 157h97q0 356 126 511q164 202 490 285l42 -151q-167 -59 -254 -111q-139 -81 -190 -192q-45 -98 -45 -342h472l-45 -157h-428v-473h515l-49 -157h-634v630h-170z" />
<glyph unicode="&#xa4;" horiz-adv-x="1300" d="M159 293l168 168q-63 105 -63 221t63 223l-168 168l100 100l163 -163q109 77 228 77q120 0 227 -77l163 163l100 -100l-168 -168q63 -108 63 -223t-63 -221l168 -168l-100 -101l-164 164q-109 -78 -227 -78q-121 0 -226 78l-164 -164zM415 685q0 -104 65 -178 q67 -77 170 -77q101 0 169 77q65 74 65 176q0 100 -65 174q-67 78 -166 78q-102 0 -170 -73.5t-68 -176.5z" />
<glyph unicode="&#xa5;" horiz-adv-x="1161" d="M25 391l73 137h396l-70 135h-358l73 137h215l-272 531l155 64l350 -702l342 700l150 -70l-255 -523h326l-45 -137h-347l-66 -135h417l-45 -137h-439l-199 -410l-152 70l166 340h-415z" />
<glyph unicode="&#xa6;" d="M429 314h166v-655h-166v655zM429 679v686h166v-686h-166z" />
<glyph unicode="&#xa7;" horiz-adv-x="1081" d="M127 -122l44 133q94 -18 158 -18q158 0 284 78q147 92 147 240q0 88 -53 122q-36 23 -227 57q-296 53 -296 288q0 171 163 264q-114 64 -114 167q0 92 72 173q131 147 402 147q60 0 173 -12l-37 -139q-75 11 -127 11q-106 0 -199 -36q-124 -47 -124 -136q0 -32 24 -50 q20 -15 82 -21q206 -20 298 -65q149 -73 149 -243q0 -175 -176 -277q150 -74 150 -244q0 -142 -98 -259q-171 -205 -506 -205q-89 0 -189 25zM344 781q0 -96 96 -135q37 -15 178 -37q168 71 168 222q0 103 -93 140q-24 10 -182 36q-167 -71 -167 -226z" />
<glyph unicode="&#xa8;" d="M268 1201v258h156v-258h-156zM595 1201v258h160v-258h-160z" />
<glyph unicode="&#xa9;" horiz-adv-x="1475" d="M68 688q0 289 196.5 496.5t483.5 207.5q277 0 471 -218q187 -211 187 -491q0 -287 -190 -495q-195 -215 -479 -215q-286 0 -481 217q-188 209 -188 498zM177 688q0 -275 184 -455q159 -156 376 -156q240 0 403 185q157 178 157 421q0 244 -157 421q-163 184 -404 184 q-238 0 -401 -183q-158 -177 -158 -417zM383 589q0 192 130 355q138 172 326 172q135 0 236 -114l-95 -83q-60 80 -147 80q-129 0 -228 -143q-89 -129 -89 -265q0 -99 55 -159.5t154 -60.5q134 0 268 138l73 -85q-165 -174 -353 -174q-150 0 -240 94t-90 245z" />
<glyph unicode="&#xaa;" horiz-adv-x="753" d="M38 756q0 166 151 299q169 149 414 149q61 0 126 -13l-44 -95q-65 6 -92 6q-179 0 -310 -114q-123 -107 -123 -236q0 -45 27.5 -78t71.5 -33q38 0 71 23q45 31 233 348l91 49v-515h-116v230q-51 -116 -104 -170q-73 -75 -179 -75q-98 0 -157.5 63.5t-59.5 161.5z" />
<glyph unicode="&#xab;" horiz-adv-x="966" d="M34 538q301 161 470 351l99 -86q-159 -177 -303 -259q153 -79 303 -232l-97 -97q-208 222 -472 323zM463 541q178 112 361 339l106 -90q-73 -88 -111 -129q-68 -71 -127 -112q135 -101 240 -258l-108 -82q-125 192 -361 332z" />
<glyph unicode="&#xac;" d="M68 423v146h887v-569h-162v423h-725z" />
<glyph unicode="&#xad;" horiz-adv-x="513" d="M0 470l44 151h469l-45 -151h-468z" />
<glyph unicode="&#xae;" horiz-adv-x="1475" d="M68 688q0 289 196.5 496.5t483.5 207.5q277 0 471 -218q187 -211 187 -491q0 -287 -190 -495q-195 -215 -479 -215q-286 0 -481 217q-188 209 -188 498zM177 688q0 -275 184 -455q159 -156 376 -156q240 0 403 185q157 178 157 421q0 244 -157 421q-163 184 -404 184 q-238 0 -401 -183q-158 -177 -158 -417zM489 274v828h124v-98q80 109 196 109q85 0 142 -55t57 -140q0 -159 -185 -252l245 -352l-107 -62l-331 476q162 10 225 103q28 41 28 84q0 36 -26 62.5t-62 26.5q-44 0 -85 -28q-97 -68 -97 -288v-414h-124z" />
<glyph unicode="&#xaf;" d="M0 1540v142h1024v-142h-1024z" />
<glyph unicode="&#xb0;" horiz-adv-x="1081" d="M299 1141q0 99 71 171.5t170 72.5q104 0 173 -71.5t69 -176.5q0 -98 -72 -166.5t-170 -68.5q-100 0 -170.5 69.5t-70.5 169.5zM428 1146q0 -47 32.5 -80.5t79.5 -33.5t78 30.5t31 77.5q0 52 -31 84t-83 32q-46 0 -76.5 -32t-30.5 -78z" />
<glyph unicode="&#xb1;" horiz-adv-x="1081" d="M110 0v142h860v-142h-860zM110 612v142h359v346h142v-346h359v-142h-359v-347h-142v347h-359z" />
<glyph unicode="&#xb2;" horiz-adv-x="733" d="M61 545l78 113q95 128 189 256q134 191 134 266q0 89 -92 89q-80 0 -159 -116l-104 72q106 167 267 167q93 0 156 -53q67 -57 67 -148q0 -115 -200 -394l-96 -134h358l-49 -118h-549z" />
<glyph unicode="&#xb3;" horiz-adv-x="733" d="M65 547l55 116q38 -8 73 -8q181 0 260 100q38 48 38 100q0 131 -186 131q-21 0 -60 -5l-28 85q197 54 197 149q0 41 -47 41q-48 0 -108 -57l-74 103q104 76 193 76q71 0 120 -41q51 -44 51 -114q0 -105 -97 -154q172 -54 172 -203q0 -116 -91 -208q-121 -123 -327 -123 q-56 0 -141 12z" />
<glyph unicode="&#xb4;" d="M466 1204l152 268h185l-197 -268h-140z" />
<glyph unicode="&#xb5;" horiz-adv-x="1002" d="M109 -498v1563h154v-784q0 -142 43 -142q31 0 81 81q36 59 124 239q78 161 239 550l143 102v-1111h-154v645q-40 -143 -130 -328q-102 -211 -185 -291q-52 -51 -105 -51q-34 0 -56 28v-501h-154z" />
<glyph unicode="&#x3bc;" horiz-adv-x="1002" d="M109 -498v1563h154v-784q0 -142 43 -142q31 0 81 81q36 59 124 239q78 161 239 550l143 102v-1111h-154v645q-40 -143 -130 -328q-102 -211 -185 -291q-52 -51 -105 -51q-34 0 -56 28v-501h-154z" />
<glyph unicode="&#xb6;" horiz-adv-x="1081" d="M55 1035q0 151 89 252q93 105 242 105q215 0 329 -221v194h167v-627q56 7 129 19l-18 -173q-58 -8 -111 -14v-133q0 -22 -4 -59q-4 -49 -5 -60q-14 -222 -166 -387q-138 -150 -362 -228l-63 155q262 96 354 261q79 141 79 438q-52 -2 -90 -2q-280 0 -425 139t-145 341z M381 985q0 -121 29 -231q81 -32 204 -32q50 0 101 2q-23 148 -33 188q-25 110 -68 176q-83 127 -204 135q-29 -105 -29 -238z" />
<glyph unicode="&#xb7;" horiz-adv-x="1054" d="M444 341v360h166v-360h-166z" />
<glyph unicode="&#xb8;" d="M328 -413l47 104q37 -5 59 -5q37 0 70 16q40 21 40 54q0 38 -53 38q-36 0 -94 -24l47 230h110l-19 -106q134 2 134 -122q0 -90 -72 -145q-66 -51 -158 -51q-39 0 -111 11z" />
<glyph unicode="&#xb9;" horiz-adv-x="733" d="M190 1161l285 253v-869h-130v589l-63 -59z" />
<glyph unicode="&#xba;" horiz-adv-x="681" d="M38 786q0 177 157 308h-123l45 102h392l-23 -57q-132 -10 -229 -115.5t-97 -238.5q0 -63 35.5 -105t97.5 -42q90 0 162 90q68 85 68 177q0 93 -95 93q-11 0 -34 -3l47 99q19 2 27 2q77 0 125.5 -50.5t48.5 -127.5q0 -147 -101 -265q-106 -123 -250 -123q-116 0 -184.5 70 t-68.5 186z" />
<glyph unicode="&#xbb;" horiz-adv-x="966" d="M34 798l108 82q127 -194 361 -332q-182 -115 -361 -339l-106 90q74 90 111 129q67 71 127 113q-135 100 -240 257zM363 287q159 176 303 258q-153 79 -303 232l97 98q208 -222 472 -323q-300 -162 -470 -351z" />
<glyph unicode="&#xbc;" horiz-adv-x="1643" d="M136 1161l285 253v-869h-130v589l-63 -59zM497 -41l408 1447h130l-411 -1447h-127zM854 320l461 480l110 44v-470h166l-42 -110h-124v-264h-128v264h-409zM1067 374h230v249z" />
<glyph unicode="&#xbd;" horiz-adv-x="1643" d="M136 1161l285 253v-869h-130v589l-63 -59zM497 -41l408 1447h130l-411 -1447h-127zM915 0q98 140 175 243q226 302 226 392q0 89 -92 89q-78 0 -159 -116l-104 72q106 167 267 167q93 0 156 -53q67 -57 67 -148q0 -96 -117 -278q-11 -17 -178 -250h357l-48 -118h-550z " />
<glyph unicode="&#xbe;" horiz-adv-x="1643" d="M65 547l55 116q38 -8 73 -8q181 0 260 100q38 48 38 100q0 131 -186 131q-21 0 -60 -5l-28 85q197 54 197 149q0 41 -47 41q-48 0 -108 -57l-74 103q104 76 193 76q71 0 120 -41q51 -44 51 -114q0 -105 -97 -154q172 -54 172 -203q0 -115 -91 -208q-121 -123 -327 -123 q-58 0 -141 12zM553 -41l408 1447h130l-411 -1447h-127zM910 320l461 480l110 44v-470h166l-42 -110h-124v-264h-128v264h-409zM1123 374h230v249z" />
<glyph unicode="&#xbf;" horiz-adv-x="574" d="M41 424q0 112 98 244q133 177 148 212q24 54 27 143h164q1 -20 1 -26q0 -118 -47 -209q-13 -25 -133 -177q-87 -109 -87 -191q0 -137 252 -348l-113 -119q-310 258 -310 471zM313 1122v441h165v-441h-165z" />
<glyph unicode="&#xc0;" horiz-adv-x="1295" d="M-41 -75l598 1452l106 44l316 -736q31 2 58 2q116 0 200 -20l-66 -151q-52 7 -126 8l209 -484l-150 -68l-226 541q-244 -60 -415 -180q-165 -117 -315 -327zM330 395q192 194 490 267l-195 466zM383 1758h185l152 -267h-140z" />
<glyph unicode="&#xc1;" horiz-adv-x="1295" d="M-41 -75l598 1452l106 44l316 -736q31 2 58 2q116 0 200 -20l-66 -151q-52 7 -126 8l209 -484l-150 -68l-226 541q-244 -60 -415 -180q-165 -117 -315 -327zM330 395q192 194 490 267l-195 466zM574 1491l152 267h185l-197 -267h-140z" />
<glyph unicode="&#xc2;" horiz-adv-x="1295" d="M-41 -75l598 1452l106 44l316 -736q31 2 58 2q116 0 200 -20l-66 -151q-52 7 -126 8l209 -484l-150 -68l-226 541q-244 -60 -415 -180q-165 -117 -315 -327zM330 395q192 194 490 267l-195 466zM364 1459l186 255h131l187 -255h-142l-107 129l-109 -129h-146z" />
<glyph unicode="&#xc3;" horiz-adv-x="1295" d="M-41 -75l598 1452l106 44l316 -736q31 2 58 2q116 0 200 -20l-66 -151q-52 7 -126 8l209 -484l-150 -68l-226 541q-244 -60 -415 -180q-165 -117 -315 -327zM330 395q192 194 490 267l-195 466zM355 1532q7 187 136 187q45 0 114 -31t98 -31q42 0 50 56h132 q-18 -182 -145 -182q-41 0 -116.5 28t-97.5 28q-34 0 -46 -55h-125z" />
<glyph unicode="&#xc4;" horiz-adv-x="1295" d="M-41 -75l598 1452l106 44l316 -736q31 2 58 2q116 0 200 -20l-66 -151q-52 7 -126 8l209 -484l-150 -68l-226 541q-244 -60 -415 -180q-165 -117 -315 -327zM330 395q192 194 490 267l-195 466zM356 1488v258h156v-258h-156zM697 1488v258h160v-258h-160z" />
<glyph unicode="&#xc5;" horiz-adv-x="1295" d="M-41 -75l598 1452l106 44l316 -736q31 2 58 2q116 0 200 -20l-66 -151q-52 7 -126 8l209 -484l-150 -68l-226 541q-244 -60 -415 -180q-165 -117 -315 -327zM330 395q192 194 490 267l-195 466zM453 1637q0 72 49.5 118.5t121.5 46.5q69 0 116.5 -49t47.5 -118 q0 -68 -50 -115.5t-118 -47.5t-117.5 48.5t-49.5 116.5zM556 1639q0 -63 63 -63q62 0 62 61q0 65 -63 65q-25 0 -43.5 -19t-18.5 -44z" />
<glyph unicode="&#xc6;" horiz-adv-x="1645" d="M-48 -63l850 1428h779l-47 -158h-479v-426h492l-48 -158h-444v-465h576l-50 -158h-693v623h-8q-51 1 -135 -23q-171 -49 -320 -211q-94 -103 -226 -317q-21 -35 -66 -104zM512 623q103 77 176 107q65 26 200 51v403q-125 -222 -170 -293q-102 -161 -206 -268z" />
<glyph unicode="&#xc7;" horiz-adv-x="1131" d="M47 529q0 247 124 473q94 171 234 278q160 122 336 122q204 0 350 -176l-127 -118q-91 134 -232 134q-81 0 -166 -48q-154 -87 -254 -286q-93 -188 -93 -375q0 -169 85 -276q92 -117 257 -117q215 0 422 232l95 -120q-217 -252 -474 -276l-15 -82q134 0 134 -123 q0 -90 -72 -145q-66 -51 -158 -51q-39 0 -111 12l47 104q36 -6 59 -6q38 0 70 17q40 20 40 54q0 38 -53 38q-36 0 -94 -24l42 206q-217 23 -335 181q-111 147 -111 372z" />
<glyph unicode="&#xc8;" horiz-adv-x="904" d="M18 634l46 158h86v573h689l-45 -158h-477v-415h493l-43 -158h-450v-476h574l-44 -158h-697v634h-132zM311 1758h185l152 -267h-140z" />
<glyph unicode="&#xc9;" horiz-adv-x="904" d="M18 634l46 158h86v573h689l-45 -158h-477v-415h493l-43 -158h-450v-476h574l-44 -158h-697v634h-132zM420 1491l152 267h185l-197 -267h-140z" />
<glyph unicode="&#xca;" horiz-adv-x="904" d="M18 634l46 158h86v573h689l-45 -158h-477v-415h493l-43 -158h-450v-476h574l-44 -158h-697v634h-132zM234 1459l186 255h131l187 -255h-142l-107 129l-109 -129h-146z" />
<glyph unicode="&#xcb;" horiz-adv-x="904" d="M18 634l46 158h86v573h689l-45 -158h-477v-415h493l-43 -158h-450v-476h574l-44 -158h-697v634h-132zM243 1488v258h156v-258h-156zM584 1488v258h160v-258h-160z" />
<glyph unicode="&#xcc;" horiz-adv-x="412" d="M122 0v1365h167v-1365h-167zM-58 1758h185l152 -267h-140z" />
<glyph unicode="&#xcd;" horiz-adv-x="412" d="M123 0v1365h167v-1365h-167zM147 1491l152 267h185l-197 -267h-140z" />
<glyph unicode="&#xce;" horiz-adv-x="412" d="M123 0v1365h167v-1365h-167zM-46 1489l186 255h131l187 -255h-142l-107 129l-109 -129h-146z" />
<glyph unicode="&#xcf;" horiz-adv-x="412" d="M123 0v1365h167v-1365h-167zM-10 1488v258h156v-258h-156zM263 1488v258h160v-258h-160z" />
<glyph unicode="&#xd0;" horiz-adv-x="1274" d="M0 642v150h148v573h170v-215q170 251 416 251q228 0 366 -169q128 -157 128 -390q0 -235 -116 -456q-207 -393 -614 -393q-58 0 -116 14l65 157q53 -6 85 -6q233 0 393 242q125 189 125 431q0 176 -80 278q-95 121 -235 121q-165 0 -282 -139q-107 -129 -118 -299h270 v-150h-287v-642h-170v642h-148z" />
<glyph unicode="&#xd1;" horiz-adv-x="1247" d="M123 0v1337l139 56l590 -899q49 -74 105 -179v1050h167v-1366l-117 -54l-654 1007q-39 60 -67 120q9 -208 9 -437q0 -209 -9 -635h-163zM379 1532q7 187 136 187q45 0 114 -31t98 -31q42 0 50 56h132q-18 -182 -145 -182q-41 0 -116.5 28t-97.5 28q-34 0 -46 -55h-125z " />
<glyph unicode="&#xd2;" horiz-adv-x="1184" d="M48 1207l49 158h715l-24 -80q-87 -16 -152 -48q-195 -96 -320 -350q-90 -182 -90 -384q0 -152 58 -253q71 -124 212 -124q134 0 253 123q100 104 160 273q57 160 57 313q0 245 -215 245q-11 0 -22 -1l45 151h23q175 0 263 -120q76 -106 76 -288q0 -299 -178 -563 q-199 -295 -484 -295q-209 0 -320 165q-96 142 -96 362q0 426 298 716h-308zM451 1758h185l152 -267h-140z" />
<glyph unicode="&#xd3;" horiz-adv-x="1184" d="M48 1207l49 158h715l-24 -80q-87 -16 -152 -48q-195 -96 -320 -350q-90 -182 -90 -384q0 -152 58 -253q71 -124 212 -124q134 0 253 123q100 104 160 273q57 160 57 313q0 245 -215 245q-11 0 -22 -1l45 151h23q175 0 263 -120q76 -106 76 -288q0 -299 -178 -563 q-199 -295 -484 -295q-209 0 -320 165q-96 142 -96 362q0 426 298 716h-308zM560 1491l152 267h185l-197 -267h-140z" />
<glyph unicode="&#xd4;" horiz-adv-x="1184" d="M48 1207l49 158h715l-24 -80q-87 -16 -152 -48q-195 -96 -320 -350q-90 -182 -90 -384q0 -152 58 -253q71 -124 212 -124q134 0 253 123q100 104 160 273q57 160 57 313q0 245 -215 245q-11 0 -22 -1l45 151h23q175 0 263 -120q76 -106 76 -288q0 -299 -178 -563 q-199 -295 -484 -295q-209 0 -320 165q-96 142 -96 362q0 426 298 716h-308zM464 1459l186 255h131l187 -255h-142l-107 129l-109 -129h-146z" />
<glyph unicode="&#xd5;" horiz-adv-x="1184" d="M48 1207l49 158h715l-24 -80q-87 -16 -152 -48q-195 -96 -320 -350q-90 -182 -90 -384q0 -152 58 -253q71 -124 212 -124q134 0 253 123q100 104 160 273q57 160 57 313q0 245 -215 245q-11 0 -22 -1l45 151h23q175 0 263 -120q76 -106 76 -288q0 -299 -178 -563 q-199 -295 -484 -295q-209 0 -320 165q-96 142 -96 362q0 426 298 716h-308zM478 1532q7 187 136 187q45 0 114 -31t98 -31q42 0 50 56h132q-18 -182 -145 -182q-41 0 -116.5 28t-97.5 28q-34 0 -46 -55h-125z" />
<glyph unicode="&#xd6;" horiz-adv-x="1184" d="M48 1207l49 158h715l-24 -80q-87 -16 -152 -48q-195 -96 -320 -350q-90 -182 -90 -384q0 -152 58 -253q71 -124 212 -124q134 0 253 123q100 104 160 273q57 160 57 313q0 257 -237 244l45 151h23q175 0 263 -120q76 -106 76 -288q0 -299 -178 -563q-199 -295 -484 -295 q-209 0 -320 165q-96 142 -96 362q0 426 298 716h-308zM478 1488v258h156v-258h-156zM819 1488v258h160v-258h-160z" />
<glyph unicode="&#xd7;" horiz-adv-x="1081" d="M156 399l284 284l-284 285l100 100l285 -284l284 284l101 -100l-285 -285l285 -284l-101 -101l-284 285l-285 -285z" />
<glyph unicode="&#xd8;" horiz-adv-x="1178" d="M48 1207l49 158h627l32 99l142 -44l-62 -196q296 -45 296 -402q0 -276 -142 -510q-184 -303 -457 -339q-45 -5 -101 -6l-48 -147l-142 44l45 142q-234 132 -234 481q0 425 305 720h-310zM223 487q0 -211 116 -312l346 1079q-176 -61 -307 -256q-155 -231 -155 -511z M479 123q210 5 355 246q128 212 128 437q0 239 -180 269z" />
<glyph unicode="&#xd9;" horiz-adv-x="1176" d="M123 252v1113h167v-1005q0 -99 1 -109q10 -76 55 -76q44 0 87 75q13 23 52 115l401 945l167 66v-1376h-167v900l-255 -601q-59 -138 -110 -205q-85 -108 -193 -108q-60 0 -107 30q-98 61 -98 236zM406 1758h185l152 -267h-140z" />
<glyph unicode="&#xda;" horiz-adv-x="1176" d="M123 252v1113h167v-1005q0 -99 1 -109q10 -76 55 -76q44 0 87 75q13 23 52 115l401 945l167 66v-1376h-167v900l-255 -601q-59 -138 -110 -205q-85 -108 -193 -108q-60 0 -107 30q-98 61 -98 236zM556 1491l152 267h185l-197 -267h-140z" />
<glyph unicode="&#xdb;" horiz-adv-x="1176" d="M123 252v1113h167v-1005q0 -99 1 -109q10 -76 55 -76q44 0 87 75q13 23 52 115l401 945l167 66v-1376h-167v900l-255 -601q-59 -138 -110 -205q-85 -108 -193 -108q-60 0 -107 30q-98 61 -98 236zM363 1489l186 255h131l187 -255h-142l-107 129l-109 -129h-146z" />
<glyph unicode="&#xdc;" horiz-adv-x="1176" d="M123 252v1113h167v-1005q0 -99 1 -109q10 -76 55 -76q44 0 87 75q13 23 52 115l401 945l167 66v-1376h-167v900l-255 -601q-59 -138 -110 -205q-85 -108 -193 -108q-60 0 -107 30q-98 61 -98 236zM365 1488v258h156v-258h-156zM706 1488v258h160v-258h-160z" />
<glyph unicode="&#xdd;" horiz-adv-x="1028" d="M0 1331l160 64l361 -701l352 699l155 -70l-674 -1342l-156 70l233 463zM455 1491l152 267h185l-197 -267h-140z" />
<glyph unicode="&#xde;" horiz-adv-x="997" d="M123 0v1365h167v-412q114 221 329 221q149 0 242 -105q89 -101 89 -252q0 -203 -146 -342t-423 -139q-12 0 -42 1l65 166q88 2 145 17q101 27 167 108t66 185q0 81 -47 135q-50 57 -130 57q-180 0 -261 -239q-54 -162 -54 -388v-378h-167z" />
<glyph unicode="&#xdf;" horiz-adv-x="1059" d="M109 0v768q0 249 38 385q56 200 214 313q121 86 258 86q119 0 194 -66q78 -69 78 -186q0 -194 -207 -327q160 -19 247 -117.5t87 -259.5q0 -258 -199 -431q-190 -166 -452 -166q-22 0 -53 1l54 146h37q179 -1 315 137t136 317q0 112 -69 184t-180 72q-73 0 -206 -48 l-37 122q127 48 233 132q136 109 136 214q0 55 -38.5 89.5t-94.5 34.5q-81 0 -163 -67q-106 -87 -146 -233q-28 -104 -28 -278v-822h-154z" />
<glyph unicode="&#xe0;" horiz-adv-x="1113" d="M40 343q0 269 232 490q258 246 642 246q87 0 173 -18l-58 -133q-92 9 -134 9q-286 0 -495 -197q-197 -185 -197 -408q0 -79 44 -137q48 -65 125 -65q63 0 119 42q86 63 231 355l150 302l104 66v-895h-154v408q-106 -213 -170 -289q-121 -144 -286 -144q-153 0 -243 110 q-83 102 -83 258zM497 1472h185l152 -268h-140z" />
<glyph unicode="&#xe1;" horiz-adv-x="1113" d="M40 343q0 269 232 490q258 246 642 246q87 0 173 -18l-58 -133q-92 9 -134 9q-286 0 -495 -197q-197 -185 -197 -408q0 -79 44 -137q48 -65 125 -65q63 0 119 42q86 63 231 355l150 302l104 66v-895h-154v408q-106 -213 -170 -289q-121 -144 -286 -144q-153 0 -243 110 q-83 102 -83 258zM565 1204l152 268h185l-197 -268h-140z" />
<glyph unicode="&#xe2;" horiz-adv-x="1113" d="M40 343q0 269 232 490q258 246 642 246q87 0 173 -18l-58 -133q-92 9 -134 9q-286 0 -495 -197q-197 -185 -197 -408q0 -79 44 -137q48 -65 125 -65q63 0 119 42q86 63 231 355l150 302l104 66v-895h-154v408q-106 -213 -170 -289q-121 -144 -286 -144q-153 0 -243 110 q-83 102 -83 258zM414 1202l186 255h131l187 -255h-142l-107 129l-109 -129h-146z" />
<glyph unicode="&#xe3;" horiz-adv-x="1113" d="M40 343q0 269 232 490q258 246 642 246q87 0 173 -18l-58 -133q-92 9 -134 9q-286 0 -495 -197q-197 -185 -197 -408q0 -79 44 -137q48 -65 125 -65q63 0 119 42q86 63 231 355l150 302l104 66v-895h-154v408q-106 -213 -170 -289q-121 -144 -286 -144q-153 0 -243 110 q-83 102 -83 258zM415 1245q7 187 136 187q45 0 113.5 -31t98.5 -31q42 0 50 56h132q-18 -182 -145 -182q-41 0 -116.5 28t-97.5 28q-34 0 -46 -55h-125z" />
<glyph unicode="&#xe4;" horiz-adv-x="1113" d="M40 343q0 269 232 490q258 246 642 246q87 0 173 -18l-58 -133q-92 9 -134 9q-286 0 -495 -197q-197 -185 -197 -408q0 -79 44 -137q48 -65 125 -65q63 0 119 42q86 63 231 355l150 302l104 66v-895h-154v408q-106 -213 -170 -289q-121 -144 -286 -144q-153 0 -243 110 q-83 102 -83 258zM374 1201v258h156v-258h-156zM702 1201v258h160v-258h-160z" />
<glyph unicode="&#xe5;" horiz-adv-x="1113" d="M40 343q0 269 232 490q258 246 642 246q87 0 173 -18l-58 -133q-92 9 -134 9q-286 0 -495 -197q-197 -185 -197 -408q0 -79 44 -137q48 -65 125 -65q63 0 119 42q86 63 231 355l150 302l104 66v-895h-154v408q-106 -213 -170 -289q-121 -144 -286 -144q-153 0 -243 110 q-83 102 -83 258zM498 1350q0 72 49.5 118.5t121.5 46.5q69 0 116.5 -49t47.5 -118q0 -68 -50 -115.5t-118 -47.5t-117.5 48.5t-49.5 116.5zM601 1352q0 -63 63 -63q62 0 62 61q0 65 -63 65q-25 0 -43.5 -19t-18.5 -44z" />
<glyph unicode="&#xe6;" horiz-adv-x="1690" d="M41 330q0 203 132 390q123 174 315 269q187 93 404 93q86 0 199 -18l-56 -136q-74 13 -140 13q-253 0 -446 -151q-246 -192 -246 -449q0 -84 46 -142q50 -64 132 -64q118 0 211 140q138 208 283 559l107 63v-102q75 115 193 189q127 80 255 80q100 0 169 -62t69 -161 q0 -172 -167 -317q-176 -153 -445 -162q-4 24 -4 43q0 54 12 108q212 17 335 127q107 96 107 181q0 91 -101 91q-124 0 -269 -140q-149 -143 -149 -360q0 -119 64 -197q68 -85 185 -85q127 0 276 89l47 -144q-180 -98 -325 -98q-162 0 -283 119v-96h-147v362 q-76 -176 -160 -265q-115 -122 -273 -122q-152 0 -243 103q-87 98 -87 252z" />
<glyph unicode="&#xe7;" horiz-adv-x="883" d="M41 382q0 249 176 464q186 228 429 228q103 0 170.5 -61.5t67.5 -163.5q0 -91 -53 -174l-153 48q41 62 41 108q0 93 -106 93q-89 0 -191 -86q-97 -82 -156 -197q-63 -122 -63 -242q0 -112 63.5 -178t174.5 -66q121 0 281 82l51 -149q-130 -81 -291 -95l-17 -98 q134 0 134 -122q0 -89 -72 -145q-66 -52 -158 -52q-39 0 -111 12l47 104q37 -6 59 -6q38 0 70 17q40 20 40 54q0 38 -53 38q-36 0 -94 -24l45 225q-157 24 -244 125.5t-87 260.5z" />
<glyph unicode="&#xe8;" horiz-adv-x="901" d="M40 391q0 231 152 430q193 253 446 253q104 0 171 -60q69 -63 69 -166q0 -162 -149 -298q-133 -122 -303 -158q-66 -14 -155 -19q-2 31 -2 50q0 37 16 101q115 8 219 60q111 56 174 145q38 54 38 98q0 97 -106 97q-87 0 -189 -86q-213 -180 -213 -439q0 -116 66.5 -180.5 t183.5 -64.5q92 0 267 82l48 -146q-168 -98 -338 -98q-177 0 -286 111t-109 288zM350 1472h185l152 -268h-140z" />
<glyph unicode="&#xe9;" horiz-adv-x="901" d="M40 391q0 231 152 430q193 253 446 253q104 0 171 -60q69 -63 69 -166q0 -162 -149 -298q-133 -122 -303 -158q-66 -14 -155 -19q-2 31 -2 50q0 37 16 101q115 8 219 60q111 56 174 145q38 54 38 98q0 97 -106 97q-87 0 -189 -86q-213 -180 -213 -439q0 -116 66.5 -180.5 t183.5 -64.5q92 0 267 82l48 -146q-168 -98 -338 -98q-177 0 -286 111t-109 288zM501 1204l152 268h185l-197 -268h-140z" />
<glyph unicode="&#xea;" horiz-adv-x="901" d="M40 391q0 231 152 430q193 253 446 253q104 0 171 -60q69 -63 69 -166q0 -162 -149 -298q-133 -122 -303 -158q-66 -14 -155 -19q-2 31 -2 50q0 37 16 101q115 8 219 60q111 56 174 145q38 54 38 98q0 97 -106 97q-87 0 -189 -86q-213 -180 -213 -439q0 -116 66.5 -180.5 t183.5 -64.5q92 0 267 82l48 -146q-168 -98 -338 -98q-177 0 -286 111t-109 288zM321 1202l186 255h131l187 -255h-142l-107 129l-109 -129h-146z" />
<glyph unicode="&#xeb;" horiz-adv-x="901" d="M40 391q0 231 152 430q193 253 446 253q104 0 171 -60q69 -63 69 -166q0 -162 -149 -298q-133 -122 -303 -158q-66 -14 -155 -19q-2 31 -2 50q0 37 16 101q115 8 219 60q111 56 174 145q38 54 38 98q0 97 -106 97q-87 0 -189 -86q-213 -180 -213 -439q0 -116 66.5 -180.5 t183.5 -64.5q92 0 267 82l48 -146q-168 -98 -338 -98q-177 0 -286 111t-109 288zM344 1201v258h156v-258h-156zM671 1201v258h160v-258h-160z" />
<glyph unicode="&#xec;" horiz-adv-x="373" d="M109 0v1065h155v-1065h-155zM-50 1472h185l152 -268h-140z" />
<glyph unicode="&#xed;" horiz-adv-x="373" d="M109 0v1065h155v-1065h-155zM134 1204l152 268h185l-197 -268h-140z" />
<glyph unicode="&#xee;" horiz-adv-x="373" d="M110 0v1065h155v-1065h-155zM-65 1202l186 255h131l187 -255h-142l-107 129l-109 -129h-146z" />
<glyph unicode="&#xef;" horiz-adv-x="373" d="M109 0v1065h155v-1065h-155zM-16 1201v258h156v-258h-156zM229 1201v258h160v-258h-160z" />
<glyph unicode="&#xf0;" horiz-adv-x="1001" d="M41 388q0 278 228 487h-185l59 142h555l-26 -68q-201 -33 -335 -192t-134 -364q0 -111 54 -186q61 -84 168 -84q62 0 125 32q136 69 211 265q62 163 62 342q0 176 -65 305q-64 124 -205 235l-166 -179l-89 89l151 161q-51 30 -155 78l66 108q107 -45 180 -88l163 173 l91 -82l-150 -161q340 -253 340 -656q0 -271 -129 -492q-164 -282 -433 -282q-181 0 -284 120q-97 113 -97 297z" />
<glyph unicode="&#xf1;" horiz-adv-x="1005" d="M109 -50v1115h154v-648q47 159 127 328q100 213 189 287q65 54 141 54q51 0 93 -27q62 -41 77 -145q5 -36 5 -173v-741h-154v724q0 159 -17 183q-12 16 -29 16q-38 0 -86 -82q-44 -75 -148 -305q-90 -198 -204 -481zM251 1245q7 187 136 187q45 0 113.5 -31t98.5 -31 q42 0 50 56h132q-18 -182 -145 -182q-41 0 -116.5 28t-97.5 28q-34 0 -46 -55h-125z" />
<glyph unicode="&#xf2;" horiz-adv-x="1001" d="M41 384q0 291 245 539h-184l58 142h583l-26 -67q-213 -37 -363.5 -214t-150.5 -393q0 -110 54 -185q61 -83 168 -83q155 0 270 166q103 150 103 313q0 79 -47 129.5t-126 50.5q-19 0 -48 -2l62 143q84 0 127 -11q194 -49 194 -287q0 -239 -147 -437q-160 -217 -391 -217 q-179 0 -282 119q-99 112 -99 294zM373 1472h185l152 -268h-140z" />
<glyph unicode="&#xf3;" horiz-adv-x="1001" d="M41 384q0 291 245 539h-184l58 142h583l-26 -67q-213 -37 -363.5 -214t-150.5 -393q0 -110 54 -185q61 -83 168 -83q155 0 270 166q103 150 103 313q0 79 -47 129.5t-126 50.5q-19 0 -48 -2l62 143q84 0 127 -11q194 -49 194 -287q0 -239 -147 -437q-160 -217 -391 -217 q-179 0 -282 119q-99 112 -99 294zM455 1204l152 268h185l-197 -268h-140z" />
<glyph unicode="&#xf4;" horiz-adv-x="1001" d="M41 384q0 291 245 539h-184l58 142h583l-26 -67q-213 -37 -363.5 -214t-150.5 -393q0 -110 54 -185q61 -83 168 -83q155 0 270 166q103 150 103 313q0 79 -47 129.5t-126 50.5q-19 0 -48 -2l62 143q84 0 127 -11q194 -49 194 -287q0 -239 -147 -437q-160 -217 -391 -217 q-179 0 -282 119q-99 112 -99 294zM358 1202l186 255h131l187 -255h-142l-107 129l-109 -129h-146z" />
<glyph unicode="&#xf5;" horiz-adv-x="1001" d="M41 384q0 291 245 539h-184l58 142h583l-26 -67q-213 -37 -363.5 -214t-150.5 -393q0 -110 54 -185q61 -83 168 -83q155 0 270 166q103 150 103 313q0 79 -47 129.5t-126 50.5q-19 0 -48 -2l62 143q84 0 127 -11q194 -49 194 -287q0 -239 -147 -437q-160 -217 -391 -217 q-179 0 -282 119q-99 112 -99 294zM359 1245q7 187 136 187q45 0 113.5 -31t98.5 -31q42 0 50 56h132q-18 -182 -145 -182q-41 0 -116.5 28t-97.5 28q-34 0 -46 -55h-125z" />
<glyph unicode="&#xf6;" horiz-adv-x="1001" d="M41 384q0 291 245 539h-184l58 142h583l-26 -67q-213 -37 -363.5 -214t-150.5 -393q0 -110 54 -185q61 -83 168 -83q155 0 270 166q103 150 103 313q0 79 -47 129.5t-126 50.5q-19 0 -48 -2l62 143q84 0 127 -11q194 -49 194 -287q0 -239 -147 -437q-160 -217 -391 -217 q-179 0 -282 119q-99 112 -99 294zM393 1201v258h156v-258h-156zM721 1201v258h160v-258h-160z" />
<glyph unicode="&#xf7;" horiz-adv-x="1081" d="M110 612v142h860v-142h-860zM457 277v251h166v-251h-166zM457 837v251h166v-251h-166z" />
<glyph unicode="&#xf8;" horiz-adv-x="1002" d="M41 381q0 297 246 541h-186l60 143h435l34 94l138 -31l-68 -206q175 -19 235 -160q27 -65 27 -143q0 -241 -150 -437q-161 -210 -393 -210q-19 0 -37 1l-44 -131l-137 33l43 135q-203 120 -203 371zM203 394q0 -153 94 -226l260 775q-154 -80 -252 -227 q-102 -154 -102 -322zM434 123q14 -1 19 -1q120 0 233 154t113 314q0 167 -147 187z" />
<glyph unicode="&#xf9;" horiz-adv-x="1002" d="M109 183v882h154v-784q0 -142 43 -142q31 0 81 81q39 63 124 239t239 550l143 102v-1111h-154v645q-43 -152 -130 -332q-105 -215 -193 -288q-61 -50 -139 -50q-168 0 -168 208zM319 1472h185l152 -268h-140z" />
<glyph unicode="&#xfa;" horiz-adv-x="1002" d="M109 183v882h154v-784q0 -142 43 -142q31 0 81 81q39 63 124 239t239 550l143 102v-1111h-154v645q-43 -152 -130 -332q-105 -215 -193 -288q-61 -50 -139 -50q-168 0 -168 208zM455 1204l152 268h185l-197 -268h-140z" />
<glyph unicode="&#xfb;" horiz-adv-x="1002" d="M109 183v882h154v-784q0 -142 43 -142q31 0 81 81q39 63 124 239t239 550l143 102v-1111h-154v645q-43 -152 -130 -332q-105 -215 -193 -288q-61 -50 -139 -50q-168 0 -168 208zM276 1202l186 255h131l187 -255h-142l-107 129l-109 -129h-146z" />
<glyph unicode="&#xfc;" horiz-adv-x="1002" d="M109 183v882h154v-784q0 -142 43 -142q31 0 81 81q39 63 124 239t239 550l143 102v-1111h-154v645q-43 -152 -130 -332q-105 -215 -193 -288q-61 -50 -139 -50q-168 0 -168 208zM257 1201v258h156v-258h-156zM584 1201v258h160v-258h-160z" />
<glyph unicode="&#xfd;" horiz-adv-x="1009" d="M72 -487l69 152q86 -14 159 -14q138 0 242 58q116 64 162 185q35 95 35 272v450q-95 -222 -118 -272q-81 -170 -151 -254q-93 -110 -193 -110q-168 0 -168 222v863h154v-813q0 -110 44 -110q26 0 61 48q77 105 229 457l157 363l145 101v-995q0 -306 -166 -462 q-173 -163 -444 -163q-82 0 -217 22zM459 1204l152 268h185l-197 -268h-140z" />
<glyph unicode="&#xfe;" horiz-adv-x="1085" d="M109 -498v2057h154v-842q68 151 180 249q130 114 279 114q154 0 241 -106q81 -99 81 -256q0 -237 -158 -433q-229 -285 -532 -285q-16 0 -38 1l65 154q205 16 355 190q146 169 146 378q0 87 -45 142q-49 59 -134 59q-88 0 -183 -86q-257 -233 -257 -800v-536h-154z" />
<glyph unicode="&#xff;" horiz-adv-x="1009" d="M72 -487l69 152q86 -14 159 -14q138 0 242 58q116 64 162 185q35 95 35 272v450q-95 -222 -118 -272q-81 -170 -151 -254q-93 -110 -193 -110q-168 0 -168 222v863h154v-813q0 -110 44 -110q26 0 61 48q77 105 229 457l157 363l145 101v-995q0 -306 -166 -462 q-173 -163 -444 -163q-82 0 -217 22zM261 1201v258h156v-258h-156zM588 1201v258h160v-258h-160z" />
<glyph unicode="&#x131;" horiz-adv-x="373" d="M109 0v1065h155v-1065h-155z" />
<glyph unicode="&#x152;" horiz-adv-x="1716" d="M48 1207l48 158h715l-25 -83q-89 -18 -153 -49q-184 -90 -301 -308q-111 -206 -111 -421q0 -146 58 -251q71 -130 205 -130q208 0 353 249q126 216 126 440q0 264 -201 264q-12 0 -38 -1l46 151q120 -1 190 -51v190h694l-47 -158h-480v-414h496l-44 -158h-452v-477h576 l-49 -158h-694v279q-78 -145 -196 -229q-131 -93 -285 -93q-209 0 -325 164q-103 145 -103 363q0 199 82.5 393.5t226.5 329.5h-312z" />
<glyph unicode="&#x153;" horiz-adv-x="1630" d="M41 391q0 286 246 533h-186l58 141h584l-25 -66q-143 -31 -247 -105q-119 -85 -193 -220q-75 -138 -75 -281q0 -110 60 -187q65 -83 172 -83q151 0 264 170q101 153 101 312q0 78 -47.5 128t-125.5 50q-19 0 -49 -3l62 144q99 0 155 -21q72 -28 117 -103q69 114 193 193 q131 84 257 84q107 0 174 -59q71 -61 71 -167q0 -118 -94 -236q-169 -212 -511 -239q1 86 15 152q184 13 310 119q118 99 118 185q0 96 -97 96q-130 0 -259 -147q-150 -170 -150 -369q0 -113 58 -181q62 -73 173 -73q137 0 287 85l49 -147q-171 -96 -334 -96 q-251 0 -351 209q-153 -238 -395 -238q-180 0 -285 122q-100 115 -100 298z" />
<glyph unicode="&#x178;" horiz-adv-x="1028" d="M0 1331l160 64l361 -701l352 699l155 -70l-674 -1342l-156 70l233 463zM264 1488v258h156v-258h-156zM605 1488v258h160v-258h-160z" />
<glyph unicode="&#x2c6;" d="M260 1202l186 255h131l187 -255h-142l-107 129l-109 -129h-146z" />
<glyph unicode="&#x2da;" d="M345 1350q0 72 49.5 118.5t121.5 46.5q69 0 116.5 -49t47.5 -118q0 -68 -50 -115.5t-118 -47.5t-117.5 48.5t-49.5 116.5zM448 1352q0 -63 63 -63q62 0 62 61q0 65 -63 65q-25 0 -43.5 -19t-18.5 -44z" />
<glyph unicode="&#x2dc;" d="M247 1245q7 187 136 187q45 0 113.5 -31t98.5 -31q42 0 50 56h132q-18 -182 -145 -182q-41 0 -116.5 28t-97.5 28q-34 0 -46 -55h-125z" />
<glyph unicode="&#x2000;" horiz-adv-x="1063" />
<glyph unicode="&#x2001;" horiz-adv-x="2127" />
<glyph unicode="&#x2002;" horiz-adv-x="1063" />
<glyph unicode="&#x2003;" horiz-adv-x="2127" />
<glyph unicode="&#x2004;" horiz-adv-x="709" />
<glyph unicode="&#x2005;" horiz-adv-x="531" />
<glyph unicode="&#x2006;" horiz-adv-x="354" />
<glyph unicode="&#x2007;" horiz-adv-x="354" />
<glyph unicode="&#x2008;" horiz-adv-x="265" />
<glyph unicode="&#x2009;" horiz-adv-x="425" />
<glyph unicode="&#x200a;" horiz-adv-x="118" />
<glyph unicode="&#x2010;" horiz-adv-x="513" d="M0 470l44 151h469l-45 -151h-468z" />
<glyph unicode="&#x2011;" horiz-adv-x="513" d="M0 470l44 151h469l-45 -151h-468z" />
<glyph unicode="&#x2012;" horiz-adv-x="513" d="M0 470l44 151h469l-45 -151h-468z" />
<glyph unicode="&#x2013;" horiz-adv-x="1004" d="M109 470l44 151h742l-45 -151h-741z" />
<glyph unicode="&#x2014;" horiz-adv-x="1223" d="M0 470l44 151h1179l-45 -151h-1178z" />
<glyph unicode="&#x2018;" horiz-adv-x="391" d="M68 978l100 415h154l-103 -415h-151z" />
<glyph unicode="&#x2019;" horiz-adv-x="391" d="M68 978l103 415h151l-100 -415h-154z" />
<glyph unicode="&#x201a;" horiz-adv-x="391" d="M68 -93l103 415h151l-100 -415h-154z" />
<glyph unicode="&#x201c;" horiz-adv-x="650" d="M68 978l100 415h154l-103 -415h-151zM327 978l101 415h154l-104 -415h-151z" />
<glyph unicode="&#x201d;" horiz-adv-x="650" d="M68 978l103 415h151l-100 -415h-154zM327 978l104 415h151l-101 -415h-154z" />
<glyph unicode="&#x201e;" horiz-adv-x="650" d="M68 -93l103 415h151l-100 -415h-154zM327 -93l104 415h151l-101 -415h-154z" />
<glyph unicode="&#x2022;" horiz-adv-x="1365" d="M401 693q0 120 84 202.5t204 82.5q116 0 198 -84t82 -200q0 -118 -83 -201t-201 -83q-117 0 -200.5 83t-83.5 200z" />
<glyph unicode="&#x2026;" horiz-adv-x="1093" d="M99 0v360h166v-360h-166zM463 0v360h166v-360h-166zM828 0v360h166v-360h-166z" />
<glyph unicode="&#x202f;" horiz-adv-x="425" />
<glyph unicode="&#x2039;" horiz-adv-x="538" d="M34 541q178 112 361 339l106 -90q-73 -88 -111 -129q-68 -71 -127 -112q135 -101 240 -258l-108 -82q-125 192 -361 332z" />
<glyph unicode="&#x203a;" horiz-adv-x="538" d="M34 798l108 82q127 -194 361 -332q-182 -115 -361 -339l-106 90q74 90 111 129q67 71 127 113q-135 100 -240 257z" />
<glyph unicode="&#x205f;" horiz-adv-x="531" />
<glyph unicode="&#x2122;" horiz-adv-x="1717" d="M9 1262l32 112h600l-32 -112h-207v-716h-124v716h-269zM686 551l161 803l89 35l252 -619l223 585l94 34l185 -838l-125 -16l-123 560l-206 -533l-85 -33l-227 566l-115 -560z" />
<glyph unicode="&#xe000;" horiz-adv-x="1095" d="M0 1095h1095v-1095h-1095v1095z" />
<glyph unicode="&#xfb01;" horiz-adv-x="963" d="M699 0v1065h154v-1065h-154zM699 1196v363h154v-363h-154zM12 916l43 149h82q14 227 143 371q134 149 358 165v-156q-152 -11 -248 -120q-92 -105 -99 -260h347l-46 -149h-301v-916h-154v916h-125z" />
<glyph unicode="&#xfb02;" horiz-adv-x="963" d="M699 0v1559h154v-1559h-154zM12 916l43 149h82q14 227 143 371q134 149 358 165v-156q-152 -11 -248 -120q-92 -105 -99 -260h347l-46 -149h-301v-916h-154v916h-125z" />
<glyph unicode="&#xfb03;" horiz-adv-x="1553" d="M1289 0v1065h154v-1065h-154zM1289 1196v363h154v-363h-154zM602 916l43 149h82q14 227 143 371q134 149 358 165v-156q-152 -11 -248 -120q-92 -105 -99 -260h347l-46 -149h-301v-916h-154v916h-125zM12 916l43 149h82q14 227 143 371q134 149 358 165v-156 q-152 -11 -248 -120q-92 -105 -99 -260h347l-46 -149h-301v-916h-154v916h-125z" />
<glyph unicode="&#xfb04;" horiz-adv-x="1553" d="M1289 0v1559h154v-1559h-154zM602 916l43 149h82q14 227 143 371q134 149 358 165v-156q-152 -11 -248 -120q-92 -105 -99 -260h347l-46 -149h-301v-916h-154v916h-125zM12 916l43 149h82q14 227 143 371q134 149 358 165v-156q-152 -11 -248 -120q-92 -105 -99 -260h347 l-46 -149h-301v-916h-154v916h-125z" />
<glyph d="M296 1488v258h156v-258h-156zM569 1488v258h160v-258h-160z" />
<glyph d="M345 1637q0 72 49.5 118.5t121.5 46.5q69 0 116.5 -49t47.5 -118q0 -68 -50 -115.5t-118 -47.5t-117.5 48.5t-49.5 116.5zM448 1639q0 -63 63 -63q62 0 62 61q0 65 -63 65q-25 0 -43.5 -19t-18.5 -44z" />
<glyph d="M260 1489l186 255h131l187 -255h-142l-107 129l-109 -129h-146z" />
<glyph d="M371 1758h185l152 -267h-140z" />
<glyph d="M480 1491l152 267h185l-197 -267h-140z" />
<glyph d="M262 1488v258h156v-258h-156zM603 1488v258h160v-258h-160z" />
<glyph d="M309 1201v258h156v-258h-156zM554 1201v258h160v-258h-160z" />
<glyph d="M247 1532q7 187 136 187q45 0 114 -31t98 -31q42 0 50 56h132q-18 -182 -145 -182q-41 0 -116.5 28t-97.5 28q-34 0 -46 -55h-125z" />
</font>
</defs>
</svg>
